<?xml version="1.0" ?>
<!DOCTYPE svg  PUBLIC '-//W3C//DTD SVG 1.1//EN'  'http://www.w3.org/Graphics/SVG/1.1/DTD/svg11.dtd'>
<!-- Uploaded to: SVG Repo, www.svgrepo.com, Generator: SVG Repo Mixer Tools -->
<svg fill="#000000" width="800px" height="800px" viewBox="0 0 512 512" enable-background="new 0 0 512 512" id="polar_x5F_bear" version="1.1" xml:space="preserve" xmlns="http://www.w3.org/2000/svg" xmlns:xlink="http://www.w3.org/1999/xlink">
<g>
<path d="M116.681,151.859c-1.397,1.713-3.566,2.205-5.415,1.589c-1.76-0.588-3.682-0.384-5.12,0.789l-0.518,0.423   c-4.13,3.369-2.79,9.901,2.259,11.343c1.614,0.462,3.286,0.694,4.961,0.694c3.983,0,7.992-1.318,11.313-4.026   c7.657-6.248,8.805-17.56,2.558-25.216c-4.188-5.136-10.656-7.344-16.771-6.356c-4.634,0.747-6.82,6.186-4.181,10.067l0,0   c1.403,2.063,3.869,3.183,6.331,2.779c0.45-0.074,0.875-0.096,1.231-0.059c1.618,0.163,3.038,1.096,3.847,2.573   C118.112,148.169,117.913,150.35,116.681,151.859z"/>
<circle cx="76.461" cy="148.783" r="6.051"/>
<path d="M73.843,204.37c32.942,19.996,58.75,49.008,74.632,83.897l0.245,0.539c8.428,18.617,12.156,39.234,10.778,59.623   l-1.528,22.624c-2.81,2.141-5.19,4.821-6.985,7.897c-2.41,4.129-3.684,8.846-3.684,13.637l0.001,0.295   c0.157,7.947,6.754,14.412,14.706,14.412h37.332c1.036,0,2.064-0.053,3.086-0.134c0.667,0.08,1.334,0.134,1.987,0.134h36.031   c10.029,0,19.778-3.398,26.762-9.337c1.939-1.659,3.645-3.483,5.058-5.404c1.479-1.995,2.684-4.14,3.581-6.37l2.557-6.352   c5.656-14.045,7.924-29.061,6.662-43.82c-0.32-3.751-3.797-6.424-7.514-5.822l0,0c-3.354,0.543-5.723,3.58-5.426,6.965   c1.121,12.795-0.815,25.491-5.781,37.822l-2.559,6.354c-0.484,1.206-1.146,2.379-1.98,3.504c-0.838,1.141-1.863,2.232-3.033,3.232   c-4.656,3.959-11.335,6.229-18.327,6.229h-12.293c3.508-3.979,6.213-8.705,7.83-13.754l8.228-25.744   c2.352-7.373,4.148-14.988,5.339-22.645c0.875-5.678,1.424-11.426,1.643-17.154c7.26-0.632,22.247-0.66,42.262,6.011   c4.717,1.571,9.705,3.554,14.986,5.651c8.513,3.383,17.199,6.824,25.838,9.041c11.491,8.137,21.631,17.825,30.275,28.844   l-7.924,4.484c-8.512,4.818-13.784,13.907-13.734,23.695c0.04,8.067,6.639,14.57,14.707,14.57h48.552h4.782h41.369   c4.64,0,9.182-1.334,13.084-3.844l0.35-0.225c6.693-4.309,10.836-11.631,11.084-19.586l1.332-42.839   c0.771-15.509,3.355-30.937,7.68-45.854c5.428-18.733,8.18-38.118,8.18-57.616c0-28.794-11.215-55.872-31.582-76.249   c-19.479-19.48-50.078-31.582-79.853-31.582h-38.384c-3.588,0-6.496,2.908-6.496,6.496v0.008c0,3.588,2.908,6.496,6.496,6.496   h38.384c26.454,0,53.528,10.643,70.659,27.772c17.911,17.921,27.775,41.736,27.775,67.059c0,18.273-2.579,36.441-7.666,53.998   c-4.611,15.904-7.363,32.354-8.181,48.891l-1.339,43.017c-0.115,3.68-2.031,7.066-5.129,9.061l-0.342,0.221   c-1.805,1.16-3.906,1.777-6.053,1.777h-41.369h-3.297c0.477-6.44,4.148-12.288,9.819-15.498l14.587-8.258   c3.123-1.768,4.221-5.73,2.454-8.854l-0.004-0.006c-1.767-3.123-5.731-4.221-8.854-2.453l-1.618,0.916   c-2.225-8.414-5.221-16.688-8.994-24.703c-0.056-0.128-0.131-0.29-0.229-0.475c-4.496-9.488-10.058-18.594-16.53-27.065   l-29.284-38.338c-2.18-2.853-6.258-3.399-9.111-1.22l0,0c-2.853,2.18-3.398,6.258-1.22,9.111l29.283,38.336   c0.771,1.008,1.524,2.025,2.265,3.053c-8.811,3.279-20.219,6.268-38.838,6.268c-11.621,0-25.096-5.354-38.127-10.53   c-5.456-2.168-10.61-4.216-15.674-5.903c-21.016-7.005-37.211-7.394-46.264-6.74v-45.969c0-3.587-2.908-6.495-6.496-6.495h-0.008   c-3.587,0-6.496,2.908-6.496,6.495v53.381c0,6.924-0.539,13.93-1.6,20.815c-1.087,6.987-2.728,13.946-4.876,20.679L223.6,376.58   c-1.158,3.615-3.059,6.857-5.646,9.633c-2.394,2.563-5.241,4.571-8.473,5.974c-3.208,1.399-6.619,2.108-10.14,2.108h-37.332   c-0.939,0-1.707-0.768-1.707-1.707l0,0c0-2.492,0.661-4.941,1.912-7.084c1.258-2.156,3.065-3.941,5.256-5.18l13.759-7.789   c2.734-1.543,5.639-2.688,8.67-3.41c2.565-0.627,5.21-0.945,7.863-0.945h2.995c3.59,0,6.5-2.91,6.5-6.5l0,0   c0-3.59-2.91-6.5-6.5-6.5h-2.995c-3.691,0-7.375,0.443-10.914,1.309c-4.178,0.996-8.218,2.586-12.017,4.73l-3.292,1.863   l0.932-13.797c1.526-22.594-2.565-45.215-11.909-65.842l-0.254-0.561c-14.028-30.817-35.305-57.333-62.135-77.666l5.836,1.162   l28.308-3.745c3.559-0.471,6.062-3.737,5.591-7.297l0,0c-0.471-3.559-3.738-6.062-7.296-5.591l-26.174,3.463l-36.733-7.314   c-9.433-1.879-18.692-4.767-27.52-8.583c-0.708-0.306-1.384-0.662-2.025-1.063c9.369-3.721,15.703-12.921,15.649-23.143   l-0.016-3.116c0.263-0.254,0.528-0.505,0.781-0.77l0.327-0.343l4.761-6.729c2.306-3.259,4.968-6.268,8.046-8.81   c10.697-8.831,22.037-10.382,28.674-10.382h26.601c19.932,0,39.853,2.403,59.21,7.144l26.266,6.432   c14.37,4.159,28.955,6.164,43.389,5.973l62.626-0.005c3.587-0.001,6.495-2.909,6.495-6.496v-0.009c0-3.587-2.908-6.496-6.496-6.496   l-62.367,0.001l-0.434,0.006c-13.182,0.181-26.545-1.671-39.722-5.497l-26.666-6.535c-20.368-4.987-41.329-7.517-62.302-7.517   H96.381c-6.435,0-12.854,1.117-18.931,3.224c-2.853-4.578-7.712-7.838-13.484-8.394c-5.917-0.565-11.662,1.763-15.608,6.495   c-1.362,1.634-2.412,3.521-3.08,5.542c-2.214,6.701-0.389,13.309,3.744,17.852l-4.161,5.88c-1.431,1.406-3.184,2.474-5.093,3.098   l-9.857,3.219C23,149.13,18.138,155.47,17.992,162.74c-0.231,11.504,6.507,21.953,17.034,26.504   c9.304,4.022,19.048,7.092,28.976,9.152L73.843,204.37z M397.457,329.978c2.059,3.511,3.963,7.094,5.686,10.743l0.281,0.597   l0.008,0.01c3.854,8.248,6.813,16.782,8.857,25.456l-1.234,0.699c-9.74,5.514-15.927,15.694-16.42,26.813h-37.033   c-0.927,0-1.705-0.74-1.708-1.667c-0.015-5.075,2.724-9.786,7.14-12.284l13.793-7.809c5.041-2.854,10.735-4.353,16.527-4.353h1.236   c3.59,0,6.5-2.91,6.5-6.5l0,0c0-3.59-2.91-6.5-6.5-6.5h-1.236c-5.846,0-11.639,1.122-17.055,3.253   c-5.6-7.367-11.805-14.201-18.576-20.453C375.744,337.316,387.599,333.863,397.457,329.978z M57.352,122.157   c0.126-1.309,0.754-2.49,1.768-3.326c1.015-0.836,2.296-1.228,3.602-1.103c1.073,0.104,2.024,0.555,2.775,1.22   c-2.71,1.721-5.276,3.66-7.665,5.805C57.454,123.97,57.263,123.085,57.352,122.157z M32.328,164.531l-1.25,0.364   c-0.062-0.592-0.102-1.188-0.09-1.793c0.034-1.779,1.261-3.317,2.954-3.87l6.155-2.01   C38.838,160.682,35.996,163.466,32.328,164.531z"/>
</g>
</svg>