<?xml version="1.0" encoding="utf-8"?>

<!DOCTYPE svg PUBLIC "-//W3C//DTD SVG 1.1//EN" "http://www.w3.org/Graphics/SVG/1.1/DTD/svg11.dtd">
<!-- Uploaded to: SVG Repo, www.svgrepo.com, Generator: SVG Repo Mixer Tools -->
<svg height="800px" width="800px" version="1.1" id="_x32_" xmlns="http://www.w3.org/2000/svg" xmlns:xlink="http://www.w3.org/1999/xlink" 
	 viewBox="0 0 512 512"  xml:space="preserve">
<style type="text/css">
	.st0{fill:#000000;}
</style>
<g>
	<path class="st0" d="M512,294.076c0-7.994-1.543-16.61-5.635-24.817c-4.078-8.208-10.805-15.82-20.092-21.429
		c-8.848-5.371-25.25-15.122-45.53-26.706l1.543-2.874c1.694-3.119,0.527-7.015-2.598-8.703c-3.125-1.688-7.015-0.521-8.71,2.604
		l-1.418,2.628c-9.248-5.226-19.088-10.698-29.253-16.232c-1.77-0.966-3.602-1.939-5.397-2.911l1.444-2.573
		c1.744-3.094,0.64-7.01-2.46-8.748c-3.1-1.732-7.015-0.627-8.747,2.466l-1.556,2.78c-11.683-6.212-23.506-12.318-35.152-18.109
		l0.59-1.023c1.782-3.068,0.728-7.002-2.334-8.778c-3.074-1.782-7.002-0.728-8.785,2.34l-1.029,1.795
		c-17.406-8.389-34.072-15.819-48.567-21.196c-14.77-5.428-26.046-8.17-36.143-8.22c-5.484-0.006-10.711,0.904-15.405,2.956
		c-3.508,1.531-6.632,3.683-9.18,6.137c-3.828,3.69-6.375,7.868-8.364,11.915c-1.989,4.067-3.47,8.101-4.939,12.086
		c-3.331,9.061-6.626,15.129-10.328,19.696c-3.112,3.834-6.538,6.821-10.692,9.362c-6.199,3.79-14.244,6.576-24.955,8.377
		c-10.686,1.801-23.913,2.566-39.864,2.604h-0.238c-9.085-0.006-16.126-1.312-21.836-3.288c-8.534-2.987-14.344-7.436-19.528-12.788
		c-5.17-5.359-9.368-11.633-14.262-17.814c-3.357-4.216-7.586-7.41-12.079-9.437c-4.499-2.039-9.224-2.956-13.817-2.961
		c-5.622,0.012-11.081,1.355-15.994,3.984c-4.888,2.623-9.318,6.644-12.192,12.098C4.712,205.595,0,232.922,0,257.099
		c0,16.07,2.071,30.79,5.045,43.202c2.39,9.87,5.277,18.134,8.42,24.798c1.067,22.501,4.254,39.657,4.318,40.027l1.945,10.504
		h146.906l13.729-10.522l42.299,10.522h275.784l2.033-10.39c2.322-11.898,3.451-22.765,3.451-32.799
		c0-2.297-0.176-4.455-0.288-6.664c1.996-3.458,3.79-7.173,5.158-11.42C510.732,308.257,511.987,301.392,512,294.076z
		 M476.936,349.928H225.799l-51.24-12.756l-16.647,12.756H41.464c-0.677-5.233-1.443-12.035-1.97-19.822l438.584-1.092
		c0.038,1.155,0.15,2.221,0.15,3.426C478.229,337.748,477.79,343.597,476.936,349.928z M484.316,306.537
		c-1.18,3.74-2.849,6.859-3.978,8.333l1.719,1.28l-443.805,1.104c-2.41-4.242-5.735-12.537-8.214-22.953
		c-2.528-10.542-4.342-23.361-4.336-37.203c0-20.883,4.079-43.98,15.562-65.86c0.138-0.276,0.59-0.86,1.593-1.4
		c0.979-0.54,2.422-0.928,3.828-0.916c1.155-0.006,2.253,0.226,3.194,0.659c0.948,0.439,1.776,1.035,2.616,2.077
		c5.22,6.394,11.991,17.375,23.744,26.856c5.886,4.724,13.077,9.004,21.724,11.991c8.647,2.999,18.674,4.7,30.244,4.7h0.025h0.251
		h0.025c22.288-0.076,40.598-1.356,56.41-5.635c7.894-2.152,15.167-5.095,21.736-9.111c6.564-3.996,12.386-9.073,17.268-15.116
		c6.087-7.505,10.566-16.365,14.482-27.001c1.28-3.476,2.416-6.482,3.501-8.816c0.803-1.751,1.576-3.106,2.259-4.066
		c1.054-1.45,1.707-1.964,2.566-2.429c0.873-0.433,2.328-0.947,5.44-0.96c5.007-0.05,14.006,1.688,27.22,6.62
		c12.914,4.769,28.287,11.596,44.564,19.408l-15.273,26.385c-0.703-0.1-1.405-0.219-2.146-0.219c-9.023,0-16.327,7.31-16.327,16.327
		c0,9.023,7.304,16.333,16.327,16.333c9.023,0,16.328-7.31,16.328-16.333c0-3.577-1.18-6.858-3.125-9.544l15.8-27.308
		c11.684,5.786,23.656,11.954,35.49,18.248l-12.725,22.696c-0.665-0.082-1.318-0.201-1.996-0.201
		c-9.023,0-16.339,7.31-16.339,16.333s7.316,16.328,16.339,16.328s16.327-7.304,16.327-16.328c0-3.633-1.217-6.952-3.225-9.663
		l12.939-23.091c1.882,1.016,3.802,2.039,5.66,3.056c10.191,5.547,20.054,11.044,29.341,16.284l-9.45,17.487
		c-0.602-0.069-1.192-0.182-1.82-0.182c-9.023,0-16.339,7.304-16.339,16.327c0,9.023,7.316,16.333,16.339,16.333
		c9.023,0,16.327-7.31,16.327-16.333c0-3.69-1.267-7.059-3.325-9.788l9.437-17.5c19.841,11.332,35.866,20.863,44.401,26.047
		c5.371,3.3,8.408,6.946,10.454,10.962c2.008,4.01,2.924,8.578,2.924,13.322C486.298,298.387,485.52,302.785,484.316,306.537z"/>
</g>
</svg>