<?xml version="1.0" encoding="utf-8"?><!-- Uploaded to: SVG Repo, www.svgrepo.com, Generator: SVG Repo Mixer Tools -->
<svg width="800px" height="800px" viewBox="0 0 500 500" id="Layer_2" data-name="Layer 2" xmlns="http://www.w3.org/2000/svg"><defs><style>.cls-1{fill:#2d140a;}.cls-1,.cls-2,.cls-3,.cls-4,.cls-5{fill-rule:evenodd;}.cls-2{fill:#fced8d;}.cls-3{fill:#ee4861;}.cls-4,.cls-5{fill:#eaa5ab;}.cls-5{stroke:#ee4861;stroke-miterlimit:2.61;stroke-width:1.76px;}</style></defs><title>icon</title><path class="cls-1" d="M88.88,107.35c31.23-35.87,77.62-58.45,127.19-66,39-5.94,80.14-2.55,117.39,11C371,66.05,404.57,90,428.36,125.11,454.7,164,465.9,214.4,459.73,281.43q-1.29,14.06-3.68,26.83c-11.64,62.69-42.2,101.86-84.2,126.19-41.58,24.08-87.14,30.33-143.32,25.46-12.63-1.09-25.42-2.79-38.29-5-30.39-5.32-54.74-16-75.37-32.21-31.34-24.59-56.66-55.42-67.3-93.9C37.06,290.75,36,249,43.27,210.08s22.81-75.36,45.47-102.56Z"/><path class="cls-2" d="M218.7,57.92c-45.6,6.93-88.15,27.56-116.61,60.25C81.32,143.17,67,176.78,60.28,213c-6.8,36.59-5.84,75.78,4,111.48,9.75,35.23,33.16,62.95,61.38,85.09,18.48,14.5,40.21,24,67.51,28.76,12.44,2.17,24.73,3.81,36.8,4.86,52.8,4.57,94.79-1,133-23.16,37.8-21.88,65.37-57.32,76-114.68q2.25-12.12,3.48-25.36c5.8-63-4.27-109.85-28.59-145.74-21.62-31.93-52.26-53.73-86.46-66.19C293,55.53,254.92,52.41,218.7,57.92Z"/><path class="cls-1" d="M254.75,322.62c16.44-2.9,29.45-10.36,40.42-16.65,15.3-8.78,27.14-15.56,40.62-7.76,10.51,6.09,16.65,13.49,19.24,21.51,2.73,8.45,1.45,17.33-2.86,25.93-4,8.07-10.8,15.9-19.35,22.83-19.19,15.53-47.88,26.87-75.48,26.28-35.06-.75-62-9.15-79.92-20.86C167,367,159.48,359,155.2,350.57c-4.49-8.83-5.5-18.07-2.84-26.82,2.25-7.41,7.13-14.35,14.74-20.23,19.13-14.81,32.87-5.24,48.35,5.54C226.64,316.86,238.93,325.42,254.75,322.62Z"/><path class="cls-3" d="M161.08,251.14c-36.88-17-51.39-39.08-53.2-57.79a39.15,39.15,0,0,1,4.8-23.29,33,33,0,0,1,16-14.28c10.19-4.14,22.42-2.56,33,7.79l1.58,1.56c3.92,3.87,5.89,5.8,6.77,5.68h0a3.6,3.6,0,0,0,1.59-1.05,35.4,35.4,0,0,0,3.6-4.4,28.76,28.76,0,0,1,14.26-10.58v0a29.67,29.67,0,0,1,14.69-.91,33.29,33.29,0,0,1,13.56,5.87,32.67,32.67,0,0,1,11.78,16.06h0a31.38,31.38,0,0,1,1.49,7.6c1,14-6.81,29.25-17.62,41.91C202.7,237.78,189,247.85,178,251.5h0a29.21,29.21,0,0,1-7.11,1.5h-.21a24.83,24.83,0,0,1-4.82-.39A19.55,19.55,0,0,1,161.08,251.14Z"/><path class="cls-3" d="M114.84,192.69c1.6,16.55,15,36.34,49.17,52.1a13.11,13.11,0,0,0,3.06,1,18.65,18.65,0,0,0,3.29.28,22.89,22.89,0,0,0,5.41-1.17h0c9.88-3.28,22.4-12.54,32.29-24.13,9.74-11.41,16.81-24.94,15.95-36.87a23.71,23.71,0,0,0-1.14-5.91h0a25.67,25.67,0,0,0-9.26-12.61,26.35,26.35,0,0,0-10.69-4.64,22.57,22.57,0,0,0-11.24.7v0a21.91,21.91,0,0,0-10.81,8.1,41.24,41.24,0,0,1-4.42,5.32,9.79,9.79,0,0,1-5.49,2.91c-4.28.58-7.06-2.15-12.6-7.61l-1.57-1.54c-8.33-8.14-17.74-9.46-25.49-6.31a25.93,25.93,0,0,0-12.52,11.27A32.13,32.13,0,0,0,114.84,192.69Z"/><path class="cls-3" d="M328.8,251.14c-36.88-17-51.39-39.08-53.2-57.79a39.15,39.15,0,0,1,4.8-23.29,33,33,0,0,1,16-14.28c10.19-4.14,22.42-2.56,33,7.79l1.58,1.56c3.92,3.87,5.89,5.8,6.78,5.68h0a3.6,3.6,0,0,0,1.59-1.05,35.4,35.4,0,0,0,3.6-4.4,28.79,28.79,0,0,1,14.27-10.58v0a29.65,29.65,0,0,1,14.69-.91,33.31,33.31,0,0,1,13.55,5.87,32.67,32.67,0,0,1,11.78,16.06h0a31.4,31.4,0,0,1,1.5,7.6c1,14-6.82,29.25-17.63,41.91-10.66,12.49-24.39,22.56-35.41,26.21h0a29.23,29.23,0,0,1-7.1,1.5h-.22a24.83,24.83,0,0,1-4.82-.39A19.55,19.55,0,0,1,328.8,251.14Z"/><path class="cls-3" d="M282.56,192.69c1.6,16.55,15,36.34,49.17,52.1a13.19,13.19,0,0,0,3.07,1,18.53,18.53,0,0,0,3.28.28,22.89,22.89,0,0,0,5.41-1.17h0c9.88-3.28,22.4-12.54,32.29-24.13,9.75-11.41,16.81-24.94,16-36.87a24.18,24.18,0,0,0-1.15-5.91h0a25.67,25.67,0,0,0-9.26-12.61,26.35,26.35,0,0,0-10.69-4.64,22.57,22.57,0,0,0-11.24.7v0a22,22,0,0,0-10.81,8.1,40.44,40.44,0,0,1-4.42,5.32,9.79,9.79,0,0,1-5.49,2.91c-4.28.58-7.06-2.15-12.6-7.61l-1.57-1.54c-8.33-8.14-17.74-9.46-25.49-6.31a25.93,25.93,0,0,0-12.52,11.27A32.13,32.13,0,0,0,282.56,192.69Z"/><path class="cls-4" d="M383.52,266.15c13.13,2.46,21.24,11,23,18.05,4.81,19.28-59.46,11.63-63.49,8.65C324.71,279.3,360.45,261.84,383.52,266.15Z"/><path class="cls-1" d="M361,265.28a3.49,3.49,0,0,1,6.67,2.08l-6.58,20.88a3.49,3.49,0,1,1-6.66-2.08Z"/><path class="cls-1" d="M382.34,263.92a3.48,3.48,0,1,1,6.36,2.85l-10.84,24.12a3.48,3.48,0,1,1-6.36-2.84Z"/><path class="cls-4" d="M143.68,266.15c13.13,2.46,21.23,11,23,18.05,4.8,19.28-59.47,11.63-63.49,8.65C84.87,279.3,120.6,261.84,143.68,266.15Z"/><path class="cls-1" d="M121.11,265.28a3.49,3.49,0,0,1,6.67,2.08l-6.57,20.88a3.49,3.49,0,1,1-6.67-2.08Z"/><path class="cls-1" d="M142.49,263.92a3.49,3.49,0,0,1,6.37,2.85L138,290.89a3.49,3.49,0,1,1-6.37-2.84Z"/><path class="cls-3" d="M300.38,315.08c-11.69,6.71-25.56,14.66-43.83,17.88-20.06,3.55-34.21-6.3-47.09-15.28-12.14-8.46-22.92-16-36-5.88-5.82,4.51-9.5,9.64-11.13,15-1.84,6.07-1.07,12.62,2.19,19,3.47,6.83,9.72,13.49,18.61,19.31,16.42,10.76,41.48,18.47,74.37,19.18,25.08.53,51.19-9.8,68.67-23.95,7.45-6,13.25-12.68,16.61-19.38,3.09-6.18,4.07-12.38,2.24-18.05s-6.43-10.95-14.52-15.64C322.3,302.51,312.74,308,300.38,315.08Z"/><path class="cls-5" d="M220.58,378.5a19.8,19.8,0,0,1-4.14-16.69c5.79-31.34,39.08-21.89,41.86-4.8,0,0,4.22-24.12,28.09-19.25,15,3.06,15.3,22.15,11,37.58-14.32,5.67-30.43,8.75-46,7.68A194.84,194.84,0,0,1,220.58,378.5Z"/></svg>